<svg width="25" height="26" viewBox="0 0 25 26" fill="none" xmlns="http://www.w3.org/2000/svg">
<path fill-rule="evenodd" clip-rule="evenodd" d="M24.8196 15.1278C24.9382 14.4363 25 13.7253 25 13C25 6.09644 19.4036 0.5 12.5 0.5C8.31396 0.5 4.6085 2.55766 2.33991 5.71671C3.60762 5.54137 4.86107 5.62264 6.10323 5.93808C9.23662 6.73379 11.9017 8.9669 14.0623 10.7857L14.2343 10.9306C16.5219 12.857 18.38 14.4217 20.3729 15.1628C21.6644 15.6431 23.0789 15.7956 24.8196 15.1278ZM22.443 20.5765C20.1592 23.5691 16.5551 25.5 12.5 25.5C5.59644 25.5 0 19.9036 0 13C0 12.6428 0.0149802 12.2892 0.0443467 11.9396C2.10785 10.528 3.63023 10.4688 4.87256 10.7843C6.70365 11.2493 8.50642 12.6444 10.8421 14.6108C10.9808 14.7275 11.1215 14.8464 11.2643 14.9671L11.2643 14.9671C13.3148 16.7 15.7925 18.794 18.6301 19.8493C19.8564 20.3053 21.1271 20.564 22.443 20.5765Z" fill="#3CDDF3"/>
</svg>
